<?xml version="1.0" encoding="utf-8"?>
<!-- Generator: Adobe Illustrator 19.2.1, SVG Export Plug-In . SVG Version: 6.00 Build 0)  -->
<svg version="1.1" id="Layer_1" xmlns="http://www.w3.org/2000/svg" xmlns:xlink="http://www.w3.org/1999/xlink" x="0px" y="0px"
	 viewBox="0 0 216.7 30.4" style="enable-background:new 0 0 216.7 30.4;" xml:space="preserve">
<style type="text/css">
	.st0{fill:#ECF0F1;}
</style>
<g>
	<path d="M52.6,7.2h-1v1v7.3c0,0,0,0,0,0l-5.1-7.8l-0.3-0.5h-0.5h-1.7h-1v1V21v1h1h1.4h1v-1v-7.3c0,0,0-0.1,0-0.1l5.1,7.9l0.3,0.5
		h0.5H54h1v-1V8.2v-1h-1H52.6z"/>
	<polygon points="36.5,18.6 36.5,15.9 40.8,15.9 41.8,15.9 41.8,14.9 41.8,13.6 41.8,12.6 40.8,12.6 36.5,12.6 36.5,10.5 41.1,10.5 
		42.1,10.5 42.1,9.5 42.1,8.2 42.1,7.2 41.1,7.2 34,7.2 33,7.2 33,8.2 33,21 33,22 34,22 41.1,22 41.2,22 42.2,22 42.2,21 
		42.2,19.6 42.2,18.6 41.2,18.6 	"/>
	<path d="M118.9,7c-2.1,0-3.9,0.7-5.2,2c-0.6,0.6-1.1,1.4-1.4,2.3v-0.8V8.2v-1h-1H99.7h-0.6l-0.3,0.5l-2.5,4.7l-2.5-4.7l-0.3-0.5
		h-0.6h-1.6h-1.7l0.8,1.5l4.2,7.7V21v1h1h1.5h1v-1v-4.6l2.6-4.8h3.5V21v1h1h2.7h1v-1v-9.5h2.5h0.9c-0.3,0.9-0.4,1.9-0.4,3.1
		c0,2.5,0.6,4.3,1.9,5.6c1.2,1.3,2.9,2,5.2,2c2.1,0,3.9-0.7,5.2-2c1.3-1.3,1.9-3.1,1.9-5.6c0-2.3-0.7-4.2-1.9-5.6
		C122.9,7.7,121.2,7,118.9,7z M116.6,14.6c0-1.5,0.4-2.2,0.6-2.6c0.4-0.5,1-0.7,1.7-0.7c0.7,0,2.2,0,2.2,3.3s-1.5,3.3-2.3,3.3
		c-0.7,0-1.3-0.3-1.6-0.7C117,16.9,116.6,16.1,116.6,14.6z"/>
	<path d="M26.2,10.4c0.9,0,1.9,0.2,2.9,0.6l0.9,0.4l0.4-0.9L31,9.2l0.4-0.9l-1-0.4C29,7.3,27.7,7,26.3,7c-1.4,0-2.8,0.3-3.9,0.9
		c-1.2,0.6-2.1,1.5-2.7,2.7c-0.6,1.2-0.9,2.5-0.9,3.9c0,2.3,0.7,4.2,1.9,5.6c1.2,1.3,3,2,5.2,2c0.9,0,1.8-0.1,2.5-0.2
		c0.8-0.1,1.5-0.3,2.2-0.5l0.7-0.2v-0.8v-6.2v-1h-1h-4.4h-1v1v1.3v1h1h1.9v2.2c-0.5,0.1-1,0.1-1.6,0.1c-1,0-2.2-0.2-2.9-1l0,0l0,0
		c-0.7-0.7-1-1.7-1-3.2s0.3-2.5,1-3.2C23.9,10.8,24.9,10.4,26.2,10.4z"/>
	<polygon points="3.4,18.7 3.4,8.2 3.4,7.2 2.4,7.2 0.9,7.2 -0.1,7.2 -0.1,8.2 -0.1,21 -0.1,21.1 -0.1,22.1 0.9,22.1 8.1,22.1 
		9.1,22.1 9.1,21.1 9.1,19.7 9.1,18.7 8.1,18.7 	"/>
	<polygon points="10.2,7.2 9.2,7.2 9.2,8.2 9.2,21 9.2,22 10.2,22 17.4,22 18.4,22 18.4,21 18.4,19.6 18.4,18.6 17.4,18.6 
		12.7,18.6 12.7,15.9 17,15.9 18,15.9 18,14.9 18,13.6 18,12.6 17,12.6 12.7,12.6 12.7,10.5 17.4,10.5 18.4,10.5 18.4,9.5 18.4,8.2 
		18.4,7.2 17.4,7.2 	"/>
	<path d="M66.8,9.2c-1.5-1.3-3.2-2-5.4-2h-3.9h-1v1v12.9v1h1h3.6c2.4,0,4.2-0.6,5.7-2l0,0l0,0c1.3-1.4,2-3.3,2-5.6
		C68.8,12.3,68.1,10.5,66.8,9.2z M65.2,14.5c0,1.6-0.3,2.6-1.1,3.2l0,0l0,0c-0.7,0.7-1.7,1-3.3,1H60v-8.3h1.2c1.3,0,2.4,0.3,3,0.9
		C64.9,12.1,65.2,13.1,65.2,14.5z"/>
	<path d="M155.2,11.2L155.2,11.2c0.1-0.1,0.2-0.2,0.6-0.2c0.2,0,0.6,0.1,1.1,0.2c0.2,0,0.7,0.2,1.5,0.5l0.9,0.4l0.4-0.9l0.9-2.1
		l0.4-0.9l-0.9-0.4c-0.7-0.3-1.4-0.5-2-0.7l-0.1,0L158,7c-0.6-0.1-1.3-0.2-2.1-0.2c-1.7,0-2.9,0.4-3.8,1.2c-1,0.9-1.5,2.1-1.5,3.4
		c0,0.8,0.2,1.4,0.5,2c0.3,0.6,0.7,1.2,1.2,1.6c0.5,0.5,1.2,0.8,2,1.2c0.7,0.3,1.2,0.6,1.6,0.8c0.2,0.1,0.3,0.2,0.3,0.2
		c0.1,0.2,0.1,0.2,0.1,0.2c0,0.1,0,0.2-0.1,0.2c0,0-0.3,0.1-0.8,0.1c-0.5,0-0.8,0-1.3-0.1l-0.1,0l-0.1,0c-0.5-0.1-1.1-0.4-2-0.7
		l-1.4-0.6v1.3h-0.9h-3.7v-1.3h3.3h1v-1v-2.2v-1h-1h-3.3v-0.8h3.7h1v-1V8.2v-1h-1h-7.4h-1v1V21v1h1h7.4h1v-0.9l0.4,0.2
		c1.2,0.6,2.6,0.9,4,0.9c1.8,0,3.1-0.4,4.1-1.2c1.1-0.8,1.7-1.9,1.7-3.5c0-1.1-0.2-1.9-0.8-3l0-0.1l-0.1-0.1
		c-0.6-0.8-1.6-1.3-2.8-1.9c-1.1-0.5-1.4-0.7-1.5-0.7l-0.1-0.1l-0.1-0.1c0,0,0,0-0.1-0.1C155.3,11.4,155.2,11.3,155.2,11.2
		C155.2,11.3,155.2,11.2,155.2,11.2L155.2,11.2z"/>
	<polygon points="136.6,7.2 135.6,7.2 135.6,8.2 135.6,14.1 131.8,7.7 131.6,7.2 131,7.2 127.6,7.2 126.6,7.2 126.6,8.2 126.6,21 
		126.6,22 127.6,22 130,22 131,22 131,21 131,15.2 134.6,21.5 134.9,22 135.5,22 139,22 139.1,22 140.1,22 140.1,21 140.1,8.2 
		140.1,7.2 139.1,7.2 	"/>
	<path d="M88.8,15.7c1.8-1,2.2-2.6,2.2-3.8c0-1.6-0.5-2.7-1.5-3.5c-1-0.7-2.3-1.1-4.1-1.1h-3.5h-1v1v11.5l-4.8-12l-0.2-0.6h-0.7
		h-1.3h-0.7L73,7.8l-5.1,12.9L67.4,22h1.5h1.5H71l0.2-0.6l1.3-3.5h3.7l1.3,3.5l0.2,0.6h0.7h1.7h0.6h0.9h0.1h1.5h1v-1v-4.3h1l2.8,4.8
		l0.3,0.5h0.6h1.8h1.8l-0.9-1.5L88.8,15.7z M84.3,10.5h0.9c1.1,0,1.6,0.2,1.8,0.4l0.1,0l0.1,0c0.1,0.1,0.3,0.4,0.3,0.9
		c0,0.9-0.2,1-0.3,1.1c-0.2,0.2-0.6,0.4-1.7,0.4h-1.1V10.5z M75.2,14.6h-1.3l0.7-1.7L75.2,14.6z"/>
	<path d="M211.6,16.1c0.8-0.3,1.5-0.9,1.8-1.6l0,0l0,0c0.5-1.5-0.6-3.2-2.4-3.7c-0.4-0.1-0.8-0.2-1.2-0.2c-1.3,0-2.5,0.7-2.9,1.8
		c-0.3,0.8-0.1,1.7,0.4,2.5c-0.7-0.2-1.5-0.5-2.3-0.7c0.7-0.3,1.3-0.8,1.6-1.5l0,0l0,0c0.5-1.5-0.6-3.2-2.4-3.7
		c-0.4-0.1-0.8-0.2-1.2-0.2c-1.3,0-2.5,0.7-2.9,1.8c-0.3,0.8-0.2,1.6,0.3,2.4c-0.7-0.2-1.5-0.5-2.2-0.7c0.7-0.3,1.3-0.8,1.6-1.5l0,0
		l0,0c0.5-1.5-0.6-3.2-2.4-3.7c-0.4-0.1-0.8-0.2-1.2-0.2c-1.3,0-2.5,0.7-2.9,1.8c-0.3,0.8-0.2,1.7,0.3,2.4c-0.4-0.1-0.8-0.2-1.2-0.4
		c-0.4-0.1-0.7-0.2-1.1-0.3c0.7-0.3,1.3-0.8,1.6-1.6l0,0l0,0c0.5-1.5-0.6-3.2-2.4-3.7c-0.4-0.1-0.9-0.2-1.3-0.2
		c-1.3,0-2.4,0.7-2.8,1.8c-0.3,0.8-0.1,1.7,0.3,2.4c-0.8-0.2-1.5-0.5-2.3-0.7c0.8-0.3,1.4-0.9,1.6-1.6l0,0l0,0
		c0.5-1.5-0.6-3.2-2.4-3.7c-0.4-0.1-0.8-0.2-1.2-0.2c-1.3,0-2.5,0.7-2.9,1.8c-0.3,0.8-0.2,1.6,0.3,2.3c-0.7-0.3-1.5-0.5-2.2-0.7
		c0.7-0.3,1.3-0.8,1.6-1.5l0,0l0,0c0.5-1.5-0.6-3.2-2.4-3.7c-0.4-0.1-0.8-0.2-1.2-0.2c-1.3,0-2.5,0.7-2.9,1.8
		c-0.3,0.8-0.2,1.7,0.3,2.4c-1.9-0.6-3.1-1-3.1-1c-0.4-0.1-0.8-0.2-1.1-0.2c-1.8,0-2.7,1.4-3.4,2.4c-0.2,0.3-0.4,0.6-0.6,0.8l0,0
		l0,0c-0.5,0.6-1.9,0.9-2.6,1l-0.9,0.1l0,0.9v13.3v1h1c6.6,0,9.7,3.7,11.6,5.9c0.4,0.4,0.7,0.8,0.9,1.1c0.6,0.6,1.6,0.9,3.1,0.9
		c2.8,0,7.4-1,12.7-2.2c1.4-0.3,2.9-0.7,4.4-1c3.2-0.7,6.2-1,9-1c3.9,0,6.6,0.7,8,1c0.9,0.2,1.5,0.3,2,0.3c2.1,0,2.2-1.8,2.3-3.3
		C216.9,21.8,215.7,17.7,211.6,16.1z M200.2,16.1c0.7,0,1.3,0.5,1.3,1.3c0,0.8-0.7,1.3-1.3,1.3c-0.7,0-1.3-0.5-1.3-1.3
		S199.4,16.1,200.2,16.1z M207.1,18.3c0.7,0,1.3,0.5,1.3,1.3c0,0.6-0.5,1.3-1.3,1.3c-0.7,0-1.3-0.5-1.3-1.3
		C205.8,18.9,206.3,18.3,207.1,18.3z M193.2,13.9c0.7,0,1.3,0.5,1.3,1.3s-0.5,1.3-1.3,1.3s-1.3-0.5-1.3-1.3S192.4,13.9,193.2,13.9z
		 M179.3,9.5c0.7,0,1.3,0.5,1.3,1.3c0,0.8-0.7,1.3-1.3,1.3c-0.7,0-1.3-0.5-1.3-1.3S178.6,9.5,179.3,9.5z M186.2,11.7
		c0.7,0,1.3,0.5,1.3,1.3c0,0.7-0.5,1.3-1.3,1.3c-0.7,0-1.3-0.5-1.3-1.3C184.9,12.3,185.5,11.7,186.2,11.7z M173.7,8.7
		c0,0.7-0.5,1.3-1.3,1.3s-1.3-0.5-1.3-1.3s0.5-1.3,1.3-1.3S173.7,8,173.7,8.7z"/>
</g>
<title>logo</title>
<g>
	<g>
		<path class="st0" d="M52.6,15.6c-0.1,0.3,0,0.9,0,1.8c0.1,0.8,0.1,1.3,0.1,1.5h-0.1l-7-10.7h-1.7V21h1.4v-7.3c0-1.1,0-2.2-0.1-3.5
			h0.1l7,10.8H54V8.2h-1.4V15.6z"/>
	</g>
	<g>
		<polygon class="st0" points="35.5,14.9 40.8,14.9 40.8,13.6 35.4,13.6 35.4,9.5 41.1,9.5 41.1,8.2 34,8.2 34,21 41.1,21 41.2,21 
			41.2,19.6 35.5,19.6 		"/>
	</g>
	<g>
		<path class="st0" d="M118.9,8c-1.9,0-3.4,0.6-4.5,1.7c-1.1,1.1-1.6,2.8-1.6,4.9s0.5,3.8,1.6,4.9c1,1.1,2.5,1.7,4.5,1.7
			c1.9,0,3.4-0.6,4.5-1.7c1.1-1.1,1.6-2.8,1.6-4.9s-0.6-3.8-1.6-4.9C122.4,8.6,120.9,8,118.9,8z M118.8,18.9c-1,0-1.9-0.4-2.4-1.1
			c-0.5-0.7-0.8-1.8-0.8-3.2s0.3-2.5,0.8-3.2c0.6-0.7,1.4-1.1,2.5-1.1c2.1,0,3.2,1.4,3.2,4.3S121,18.9,118.8,18.9z"/>
	</g>
	<g>
		<path class="st0" d="M25.9,15.6h2.9v4c-0.8,0.2-1.7,0.3-2.6,0.3c-1.6,0-2.9-0.4-3.7-1.3c-0.9-0.9-1.3-2.2-1.3-3.9
			c0-1.7,0.4-3,1.3-3.9c0.9-0.9,2.1-1.4,3.7-1.4c1,0,2.1,0.2,3.3,0.7l0.6-1.3C28.9,8.3,27.7,8,26.3,8c-1.3,0-2.5,0.3-3.5,0.8
			s-1.8,1.3-2.3,2.3c-0.5,1-0.8,2.2-0.8,3.5c0,2.1,0.6,3.8,1.6,4.9c1,1.1,2.6,1.7,4.5,1.7c0.9,0,1.7-0.1,2.4-0.2
			c0.7-0.1,1.4-0.3,2.1-0.5v-6.2h-4.4V15.6z"/>
	</g>
	<g>
		<polygon class="st0" points="2.4,8.2 0.9,8.2 0.9,21 0.9,21.1 8.1,21.1 8.1,19.7 2.4,19.7 		"/>
	</g>
	<g>
		<polygon class="st0" points="10.2,21 17.4,21 17.4,19.6 11.7,19.6 11.7,14.9 17,14.9 17,13.6 11.7,13.6 11.7,9.5 17.4,9.5 
			17.4,8.2 10.2,8.2 		"/>
	</g>
	<g>
		<path class="st0" d="M61.4,8.2h-3.9v12.9h3.6c2.2,0,3.8-0.6,5-1.7c1.1-1.2,1.7-2.8,1.7-4.9c0-2-0.6-3.5-1.7-4.6
			C64.9,8.8,63.4,8.2,61.4,8.2z M64.8,18.5c-0.9,0.9-2.2,1.3-4,1.3H59V9.5h2.2c1.6,0,2.9,0.4,3.7,1.2c0.9,0.9,1.3,2.1,1.3,3.8
			C66.2,16.3,65.8,17.6,64.8,18.5z"/>
	</g>
	<g>
		<polygon class="st0" points="96.3,14.6 92.9,8.2 91.3,8.2 95.6,16.1 95.6,21 97.1,21 97.1,16.1 100.1,10.5 105.1,10.5 105.1,21 
			107.8,21 107.8,10.5 111.3,10.5 111.3,8.2 99.7,8.2 		"/>
	</g>
	<g>
		<path class="st0" d="M159.8,17.5c0-0.9-0.2-1.6-0.7-2.5c-0.5-0.6-1.3-1.1-2.5-1.7c-0.9-0.4-1.5-0.7-1.7-0.9
			c-0.2-0.1-0.4-0.3-0.5-0.5c-0.1-0.2-0.2-0.4-0.2-0.6c0-0.3,0.1-0.7,0.4-0.9c0.3-0.3,0.7-0.4,1.2-0.4c0.4,0,0.9,0.1,1.3,0.2
			c0.4,0.1,1,0.3,1.7,0.6l0.9-2.1c-0.7-0.3-1.3-0.5-1.9-0.7c-0.6-0.1-1.2-0.2-1.9-0.2c-1.4,0-2.4,0.3-3.2,1
			c-0.8,0.7-1.2,1.6-1.2,2.7c0,0.6,0.2,1.1,0.4,1.6c0.2,0.5,0.5,0.9,0.9,1.2c0.4,0.4,1,0.7,1.8,1.1c0.9,0.4,1.4,0.7,1.7,0.9
			c0.3,0.2,0.5,0.4,0.6,0.6c0.1,0.2,0.2,0.4,0.2,0.7c0,0.4-0.2,0.8-0.5,1c-0.3,0.2-0.8,0.3-1.4,0.3c-0.5,0-1,0-1.6-0.2
			c-0.6-0.1-1.3-0.4-2.2-0.8v2.5c1,0.5,2.2,0.8,3.6,0.8c1.5,0,2.7-0.3,3.5-1C159.4,19.6,159.8,18.7,159.8,17.5L159.8,17.5z"/>
	</g>
	<g>
		<path class="st0" d="M136.6,14.3c0,0.7,0,1.8,0.1,3.5h-0.1L131,8.2h-3.4V21h2.4v-6c0-0.8-0.1-2-0.2-3.7h0.1l5.6,9.7h3.5h0.1V8.2
			h-2.5V14.3z"/>
	</g>
	<g>
		<path class="st0" d="M90,11.8c0-1.2-0.3-2.1-1.1-2.7c-0.8-0.6-1.9-0.9-3.5-0.9h-3.5V21h1.5v-5.3H86l3.1,5.3h1.8l-3.5-5.8
			C89.1,14.6,90,13.5,90,11.8z M85.4,14.4h-2h-0.1V9.5h1.9c1.1,0,1.9,0.2,2.4,0.6c0.5,0.3,0.8,1,0.8,1.8c0,0.9-0.2,1.5-0.7,1.9
			C87.2,14.2,86.5,14.4,85.4,14.4z"/>
	</g>
	<g>
		<polygon class="st0" points="142.1,21 149.5,21 149.5,18.7 144.8,18.7 144.8,15.4 149.1,15.4 149.1,13.2 144.8,13.2 144.8,10.4 
			149.5,10.4 149.5,8.2 142.1,8.2 		"/>
	</g>
	<g>
		<path class="st0" d="M73.9,8.1L68.9,21h1.5l1.6-4.1H77l1.6,4.1h1.7L75.2,8.1H73.9z M72.4,15.6l1.5-4c0.3-0.7,0.5-1.3,0.6-1.9
			c0.2,0.8,0.4,1.4,0.6,1.9l1.5,4H72.4z"/>
	</g>
	<g>
		<circle class="st0" cx="179.3" cy="10.9" r="1.9"/>
	</g>
	<g>
		<circle class="st0" cx="200.2" cy="17.4" r="1.9"/>
	</g>
	<g>
		<circle class="st0" cx="193.2" cy="15.2" r="1.9"/>
	</g>
	<g>
		<circle class="st0" cx="172.4" cy="8.7" r="1.9"/>
	</g>
	<g>
		<circle class="st0" cx="186.2" cy="13" r="1.9"/>
	</g>
	<g>
		<path class="st0" d="M210.9,16.9c-0.3-0.1-0.7-0.3-1.3-0.4l0.4-1.3c1.1,0.2,2.1-0.3,2.4-1.1c0.3-1-0.4-2.1-1.7-2.5
			c-1.2-0.4-2.5,0-2.9,1c-0.3,0.8,0.2,1.8,1.2,2.3l-0.4,1.3c-1.5-0.5-3.5-1.1-5.8-1.8l0.4-1.2c1.1,0.2,2.1-0.3,2.4-1.1
			c0.3-1-0.4-2.1-1.7-2.5c-1.2-0.4-2.5,0-2.9,1c-0.3,0.8,0.2,1.8,1.2,2.3l-0.4,1.2c-1.8-0.6-3.8-1.2-5.8-1.8l0.4-1.2
			c1.1,0.2,2.1-0.3,2.4-1.1c0.3-1-0.4-2.1-1.7-2.5c-1.2-0.4-2.5,0-2.9,1c-0.3,0.8,0.2,1.8,1.2,2.3l-0.4,1.2
			c-1.9-0.6-3.9-1.2-5.8-1.8l0.4-1.2c1.1,0.2,2.1-0.3,2.4-1.1c0.3-1-0.4-2.1-1.7-2.5c-1.3-0.4-2.5,0-2.9,1c-0.3,0.8,0.2,1.8,1.2,2.3
			l-0.4,1.2c-2-0.6-4-1.2-5.8-1.8l0.4-1.2c1.1,0.2,2.1-0.3,2.4-1.1c0.3-1-0.4-2.1-1.7-2.5c-1.2-0.4-2.5,0-2.9,1
			c-0.3,0.8,0.2,1.8,1.2,2.3l-0.4,1.2c-2.1-0.8-4.1-1.4-5.8-1.9l0.4-1.2c1.1,0.2,2.1-0.3,2.4-1.1c0.3-1-0.4-2.1-1.7-2.5
			c-1.2-0.4-2.5,0-2.9,1c-0.3,0.8,0.2,1.8,1.2,2.3l-0.4,1.2c-2.9-0.9-4.8-1.5-4.8-1.5c-2.3-0.7-3,1.5-4,2.7
			c-0.9,1.2-3.3,1.4-3.3,1.4v13.3c8.4,0,11.6,5.6,13.3,7.3c1.7,1.7,10.1-0.6,19.2-2.6s14.7-0.7,17.4,0c2.8,0.7,2.9,0.2,3.1-2.1
			S214.6,18.2,210.9,16.9L210.9,16.9z M172.4,11c-1.3,0-2.3-1-2.3-2.3s1-2.3,2.3-2.3s2.3,1,2.3,2.3S173.7,11,172.4,11z M179.3,13.1
			c-1.3,0-2.3-1-2.3-2.3s1-2.3,2.3-2.3c1.3,0,2.3,1,2.3,2.3S180.5,13.1,179.3,13.1z M186.2,15.3c-1.3,0-2.3-1-2.3-2.3s1-2.3,2.3-2.3
			s2.3,1,2.3,2.3S187.5,15.3,186.2,15.3z M193.2,17.5c-1.3,0-2.3-1-2.3-2.3c0-1.3,1-2.3,2.3-2.3c1.3,0,2.3,1,2.3,2.3
			C195.5,16.5,194.5,17.5,193.2,17.5z M200.2,19.7c-1.3,0-2.3-1-2.3-2.3c0-1.3,1-2.3,2.3-2.3s2.3,1,2.3,2.3
			C202.5,18.7,201.4,19.7,200.2,19.7z M207.1,21.9c-1.3,0-2.3-1-2.3-2.3c0-1.3,1-2.3,2.3-2.3s2.3,1,2.3,2.3
			C209.4,20.8,208.4,21.9,207.1,21.9z"/>
	</g>
	<g>
		<circle class="st0" cx="207.1" cy="19.6" r="1.9"/>
	</g>
</g>
</svg>
