<svg id="logo" xmlns="http://www.w3.org/2000/svg" viewBox="0 0 216.7 34"><style>.st0{fill:#ECF0F1;}</style><title>logo</title><path d="M137.5 8.4h-4.4V15l-3.8-6.6h-4.9V23h4.4v-6.7l3.8 6.7h5l-.1-14.6zM154.3 13.8c-.5-.2-1.1-.5-1.6-.8-.1-.1-.2-.1-.2-.2v-.1c0-.1 0-.1.1-.2.2-.1.3-.1.5-.1.4 0 .7 0 1.1.1.5.1 1 .3 1.5.5l.9.4.4-.9.9-2.1.4-.9-.9-.4c-.6-.3-1.3-.5-2-.7-.7-.2-1.4-.3-2.1-.3-1.4-.1-2.7.4-3.8 1.2-1 .8-1.5 2.1-1.5 3.4 0 .7.1 1.4.5 2 .3.6.7 1 1.1 1.5.6.5 1.3.9 2 1.2.5.2 1 .5 1.5.8.1.1.3.2.4.3v.1c0 .1 0 .1-.1.2-.2.1-.5.2-.8.1-.5 0-.9-.1-1.4-.2-.7-.2-1.4-.4-2-.8l-1.4-.6v1.4h-4.4v-1.2h4.3v-4.2h-4.3v-.8h4.6V8.4h-9.2V23h9.2v-.9l.4.2c1.2.6 2.6.9 4 .9 1.4.1 2.8-.4 4-1.2 1.1-.8 1.7-2.1 1.6-3.5 0-1-.3-1.9-.9-2.7-.7-.9-1.7-1.6-2.8-2zM18.1 11.7V8.4h-9v11.2H3.5V8.4H0V23h18.1v-3.3h-5.5V17h5.2v-3.3h-5.2v-2zM25.8 8.2c-1.4 0-2.7.3-3.9.9-1.1.6-2.1 1.5-2.7 2.7-.6 1.2-.9 2.6-.9 3.9-.1 2 .6 3.9 1.9 5.5 1.4 1.4 3.2 2.1 5.2 2 .9 0 1.7 0 2.6-.1.7-.1 1.5-.3 2.2-.5l.7-.2v-7.9h-6.3v3.3h2.8v2c-.5.1-1 .1-1.6.1-1.1.1-2.1-.3-2.9-1-.7-.9-1.1-2-1-3.2-.1-1.1.3-2.2 1-3.1.8-.7 1.8-1.1 2.9-1.1 1 0 2 .2 2.9.6l.9.4L31 9.4 30 9c-1.4-.6-2.8-.8-4.2-.8zM41.5 8.4h-9V23h9v-3.3H36V17h5.2v-3.3H36v-2.1h5.5V8.4zM54.1 8.4h-3.4v8.1l-5.3-8.1h-3.2V23h3.3v-8.1l5.3 8.1H54V8.4h.1zM60.4 8.4h-4.9V23H60c2.1.1 4.1-.6 5.6-2 1.4-1.5 2.1-3.5 2-5.5.1-1.9-.6-3.8-1.9-5.2-1.4-1.4-3.3-2.1-5.3-1.9zM59 11.6h1.1c1.1-.1 2.2.3 3 1 .7.8 1 1.9.9 3 .1 1.1-.3 2.2-1 3.1-.9.7-2.1 1.1-3.2 1H59v-8.1zM87.4 16.8c1.4-.8 2.2-2.2 2.1-3.8.1-1.3-.5-2.6-1.5-3.4-1.2-.8-2.6-1.2-4-1.1h-4.5v12.7l-5-12.7H72L66.2 23h3.6l1.6-4H75l1.6 4H83v-5.3h1l3 5.2h4.1l-3.7-6.1zm-14.7-1.2l.6-1.6.6 1.6h-1.2zm9.3 1.1zm3.6-2.6c-.5.3-1.1.4-1.6.4h-1v-2.8h.9c.6-.1 1.2.1 1.8.4.3.2.4.6.3 1 .1.3-.1.7-.4 1z"/><path d="M122 10.2c-2.9-2.6-7.4-2.6-10.3 0-.5.6-.9 1.2-1.2 1.9V8.4h-13l-2.8 5.2-2.8-5.2H88l4.9 9V23h3.5v-5.7l2.6-4.7h3.4V23h4.7V12.6h3.2c-.3 1-.4 2-.4 3-.1 2 .5 4 1.8 5.5 2.9 2.7 7.4 2.7 10.3 0 1.3-1.5 1.9-3.5 1.8-5.5.1-2-.5-3.9-1.8-5.4zm-5.2 8.7c-.6.1-1.2-.2-1.6-.7-.5-.8-.7-1.7-.6-2.6-.1-.9.1-1.8.6-2.6.4-.5 1-.7 1.6-.7.7 0 2.2 0 2.2 3.2s-1.5 3.4-2.2 3.4z"/><path class="st0" d="M136.5 22h-3.4l-5.5-9.5h-.1c.1 1.7.2 2.9.2 3.6V22h-2.4V9.4h3.4l5.5 9.4h.1c-.1-1.6-.1-2.8-.1-3.5v-6h2.4l-.1 12.7zM146.9 22h-7.2V9.4h7.2v2.2h-4.6v2.8h4.3v2.2h-4.3v3.2h4.6V22zM157 18.5c0 1-.4 2-1.2 2.7-1 .7-2.2 1.1-3.4 1-1.2 0-2.4-.2-3.6-.8v-2.5c.7.3 1.4.6 2.1.8.5.1 1.1.2 1.6.2s.9-.1 1.4-.3c.3-.2.5-.6.5-1 0-.2-.1-.5-.2-.7l-.6-.6c-.5-.3-1.1-.6-1.6-.9-.6-.3-1.2-.6-1.7-1-.4-.3-.7-.7-.9-1.2-.2-.5-.4-1-.3-1.6 0-1 .4-2 1.1-2.6.9-.7 2-1.1 3.1-1 .6 0 1.3.1 1.9.2.6.2 1.3.4 1.9.6l-.9 2.1c-.5-.2-1.1-.4-1.7-.6-.4-.1-.9-.2-1.3-.2s-.8.1-1.2.4c-.4.4-.5 1-.2 1.5.1.2.3.4.5.5.5.3 1.1.6 1.7.9.9.4 1.7 1 2.4 1.7.4.9.6 1.6.6 2.4z"/><path d="M211.8 17.3l.2-.5c1.2 0 2.3-.8 2.7-2 .4-1.6-.8-3.2-2.7-3.7-.4-.1-.7-.1-1.1-.1-1.4-.1-2.6.7-3.1 2-.3 1.2.2 2.4 1.2 3l-.1.3-4.2-1.3.1-.3c1.2 0 2.3-.8 2.7-2 .2-.8 0-1.7-.6-2.4s-1.3-1.1-2.1-1.3c-.4-.1-.7-.1-1.1-.1-1.4-.1-2.6.7-3.1 2-.3 1.2.2 2.3 1.2 3l-.1.3-1.8-.6-2.4-.7.1-.3c1.2 0 2.3-.8 2.7-2 .2-.7.1-1.4-.3-2-.5-.9-1.4-1.5-2.4-1.7-.4-.1-.7-.1-1.1-.1-1.4-.1-2.6.7-3.1 2-.3 1.2.2 2.4 1.2 3l-.1.3-4.2-1.3.1-.3c1.2 0 2.3-.8 2.7-2 .2-.7.1-1.4-.3-2-.5-.9-1.4-1.5-2.4-1.7-.4-.1-.7-.1-1.1-.1-1.4-.1-2.6.7-3.1 2-.3 1.2.2 2.4 1.2 3l-.1.3-1.3-.8-2.8-.9.1-.4c1.2 0 2.3-.8 2.7-2 .2-.7.1-1.4-.3-2-.5-.9-1.4-1.5-2.4-1.7-.4-.1-.7-.1-1.1-.1-1.4-.1-2.6.7-3.1 2-.3 1.2.2 2.4 1.2 3l-.1.3-4.2-1.2.1-.3c1.2 0 2.3-.8 2.7-2 .2-.7.1-1.4-.3-2-.5-.9-1.4-1.5-2.4-1.7-.3-.2-.7-.2-1.1-.2-1.3-.1-2.6.7-3 2-.3 1.2.2 2.3 1.2 3l-.1.2-3.5-1.1c-.7-.3-1.4-.4-2.1-.4-1.8 0-2.5 1.3-3.2 2.6l-.4.7c-.6 1.1-2.3 1.2-3.2 1.2h-.7l-1.1-.1v15.1h1.2c4.4 0 8.7 1.9 11.5 5.3l.2.3c.4.5.8.9 1.2 1.5.3.7 1 1.1 1.8 1.2h.2c3.7-.3 7.3-1 10.9-1.9 4.9-1.1 8.1-1.8 11.1-2.3.3 0 .6-.1.8-.1 1 0 1.2.4 1.8 1.4l.4.4c1.9 3.1 4.8 5 7.8 5 4.3 0 9-3.5 9-8.6.1-3.4-1.9-6.6-5-8.1z"/><path class="st0" d="M99.2 9.4H98l-3.4 6.3-3.3-6.3h-1.6l4.2 7.7V22h1.5v-4.9l2.9-5.5h5V22h2.7V11.6h3.4V9.4zM121.2 10.9c-1.2-1.2-2.8-1.8-4.4-1.7-1.7-.1-3.3.5-4.4 1.7-1.1 1.3-1.7 3.1-1.6 4.8-.1 1.7.4 3.5 1.6 4.8 2.5 2.2 6.3 2.2 8.9 0 1.1-1.3 1.7-3.1 1.6-4.8 0-1.8-.6-3.5-1.7-4.8zm-4.4 9c-.9.1-1.8-.3-2.4-1.1-.6-.9-.9-2.1-.8-3.2-.1-1.1.2-2.2.8-3.2.6-.7 1.5-1.1 2.4-1.1 2.1 0 3.2 1.4 3.2 4.2s-1.1 4.4-3.2 4.4zM77.3 22l-1.6-4h-5l-1.6 4h-1.5l5-12.6h1.2l5 12.6h-1.5zm-2-5.3l-1.5-3.9c-.2-.5-.4-1.1-.6-1.8-.1.6-.3 1.2-.5 1.8l-1.5 3.9h4.1zM86 16.3c1.5-.4 2.6-1.8 2.5-3.4.1-1-.3-2-1.1-2.7-1-.7-2.2-1-3.4-.9h-3.5V22H82v-5.3h2.6l3 5.2h1.7L86 16.3zm-2-.8h-2v-4.8h1.9c.8-.1 1.6.1 2.4.6.5.4.8 1.1.7 1.8.1.7-.2 1.4-.7 1.9-.7.3-1.5.5-2.3.5zM66.6 15.6c.1 1.8-.5 3.5-1.7 4.8-1.3 1.2-3.1 1.8-4.9 1.7h-3.5V9.4h3.8c1.7-.1 3.4.5 4.6 1.6 1.2 1.2 1.8 2.9 1.7 4.6zm-1.6 0c.1-1.4-.3-2.7-1.2-3.7-1-.9-2.3-1.3-3.7-1.2H58v10h1.8c1.4.1 2.8-.4 3.9-1.3.9-1.1 1.4-2.4 1.3-3.8zM40.5 22h-7V9.4h7v1.3H35v4.1h5.2V16H35v4.6h5.5V22zM53.1 22h-1.7l-6.9-10.6h-.1c.1 1.2.1 2.4.1 3.4V22h-1.3V9.4h1.7l6.8 10.5h.1c0-.2 0-.6-.1-1.5 0-.8-.1-1.4 0-1.8V9.4h1.4V22zM1 22V9.4h1.5v11.2H8V22H1zM17.1 22h-7V9.4h7v1.3h-5.5v4.1h5.2V16h-5.2v4.6h5.6l-.1 1.4zM25.5 15.4h4.3v6.1c-.7.2-1.3.4-2 .5-.8.1-1.6.2-2.4.2-1.7.1-3.3-.5-4.4-1.7-1.1-1.3-1.7-3-1.6-4.8 0-1.2.2-2.4.8-3.4.5-1 1.3-1.7 2.2-2.2 1.1-.5 2.3-.8 3.5-.8 1.3 0 2.6.2 3.8.7l-.7 1.2c-1-.5-2.1-.7-3.3-.7-1.3-.1-2.6.4-3.6 1.4-.9 1-1.4 2.4-1.3 3.8-.1 1.4.3 2.8 1.2 3.9 1 .9 2.3 1.4 3.6 1.3.9 0 1.7-.1 2.6-.3v-3.9h-2.8v-1.3h.1zM210.6 17.8l.7-2c1 .2 2.1-.3 2.5-1.3.3-1-.6-2.1-2-2.5s-2.7.2-3 1.2c-.1 1 .5 2 1.5 2.3l-.6 2-.4-.1-5.7-1.7.7-2c1 .2 2.1-.3 2.5-1.3.3-1-.6-2.1-2-2.5s-2.7.2-3 1.2c-.1 1 .5 2 1.5 2.3l-.6 2-6.2-1.9.7-2c1 .2 2.1-.3 2.5-1.3.3-1-.6-2.1-2-2.5s-2.7.2-3 1.2c-.1 1 .5 2 1.4 2.3l-.6 2-6.1-1.9.7-2c1.1.3 2.2-.3 2.6-1.3.3-1-.6-2.1-2-2.5s-2.7.2-3 1.2c-.1 1 .5 2 1.5 2.3l-.6 1.9-6.7-1.9.7-2c1 .2 2-.3 2.4-1.2.3-1-.6-2.1-2-2.5s-2.7.2-3 1.2c-.1 1 .5 2 1.4 2.3l-.6 2-6.1-1.9.6-2c1 .2 2.1-.3 2.5-1.3.3-1-.6-2.1-2-2.5s-2.7.2-3 1.2c-.1 1 .5 2 1.4 2.3l-.5 1.9c-2.3-.7-3.9-1.2-4.4-1.4-3.1-1-3.2.2-4.6 2.4s-4.9 1.7-4.9 1.7v12.9c4.9 0 9.5 2.1 12.7 5.9 1.6 1.6 1.6 2.5 2.4 2.4 3.6-.3 7.2-1 10.8-1.9 5.4-1.3 8.5-1.9 11.2-2.3s3 .8 3.9 2.3c1.9 3.2 4.7 4.5 7 4.5 4 0 8-3.2 8-7.6.1-3.4-2-6.4-5.2-7.6zm-39.1-6.7c-.9 0-1.6-.7-1.6-1.6 0-.9.7-1.6 1.6-1.6.9 0 1.6.7 1.6 1.6 0 .9-.7 1.6-1.6 1.6zm7.2 2.2c-.9 0-1.6-.7-1.6-1.6 0-.9.7-1.6 1.6-1.6.9 0 1.6.7 1.6 1.6 0 .9-.7 1.6-1.6 1.6zm7.1 2.1c-.9 0-1.6-.7-1.6-1.6 0-.9.7-1.6 1.6-1.6.9 0 1.6.7 1.6 1.6.1.9-.7 1.7-1.6 1.6zm7.2 2.3c-.9 0-1.6-.7-1.6-1.6 0-.9.7-1.6 1.6-1.6.9 0 1.6.7 1.6 1.6 0 .9-.7 1.6-1.6 1.6zm7.2 2.2c-.9 0-1.6-.7-1.6-1.6 0-.9.7-1.6 1.6-1.6.9 0 1.6.7 1.6 1.6 0 .9-.7 1.6-1.6 1.6zm7.2 2.2c-.9 0-1.6-.7-1.6-1.6s.7-1.6 1.6-1.6c.9 0 1.6.7 1.6 1.6 0 .8-.7 1.6-1.6 1.6zM171.5 8.3c-.7 0-1.2.5-1.2 1.2s.5 1.2 1.2 1.2 1.2-.5 1.2-1.2-.5-1.2-1.2-1.2zm7.2 2.2c-.7 0-1.2.5-1.2 1.2s.5 1.2 1.2 1.2 1.2-.5 1.2-1.2-.5-1.2-1.2-1.2c0 0 0-.1 0 0zm7.1 2.1c-.7 0-1.2.5-1.2 1.2s.5 1.2 1.2 1.2 1.2-.5 1.2-1.2c.1-.6-.5-1.2-1.2-1.2zm7.2 2.3c-.7 0-1.2.5-1.2 1.2s.5 1.2 1.2 1.2 1.2-.5 1.2-1.2-.5-1.2-1.2-1.2zm7.2 2.2c-.7 0-1.2.5-1.2 1.2s.5 1.2 1.2 1.2 1.2-.5 1.2-1.2-.5-1.2-1.2-1.2zm7.2 2.1c-.7 0-1.2.5-1.2 1.2s.5 1.2 1.2 1.2 1.2-.5 1.2-1.2c0-.6-.5-1.1-1.2-1.2z"/></svg>